<svg xmlns="http://www.w3.org/2000/svg" width="64" height="64" viewBox="0 0 64 64" shape-rendering="crispEdges">
  <polygon points="20,16 13,4 18,3 27,14" fill="#f3f1df"/><polygon points="44,16 51,4 46,3 37,14" fill="#f3f1df"/>
  <rect x="20" y="11" width="24" height="22" fill="#f3f1df"/><rect x="24" y="20" width="4" height="6" fill="#111522"/><rect x="36" y="20" width="4" height="6" fill="#111522"/>
  <polygon points="18,32 46,32 52,58 12,58" fill="#1b2231"/><polygon points="23,33 32,42 41,33 38,56 26,56" fill="#303b4d"/>
  <rect x="49" y="27" width="3" height="31" fill="#d8d9cf"/><rect x="46" y="26" width="9" height="4" fill="#8a8d86"/>
  <rect x="18" y="57" width="12" height="5" fill="#0e121b"/><rect x="34" y="57" width="12" height="5" fill="#0e121b"/>
</svg>
