<svg xmlns="http://www.w3.org/2000/svg" width="64" height="64" viewBox="0 0 64 64" shape-rendering="crispEdges">
  <rect x="22" y="7" width="20" height="5" fill="#392b24"/><rect x="18" y="12" width="28" height="16" fill="#dca477"/>
  <rect x="18" y="12" width="6" height="10" fill="#392b24"/><rect x="40" y="12" width="6" height="10" fill="#392b24"/>
  <rect x="24" y="18" width="4" height="3" fill="#202020"/><rect x="36" y="18" width="4" height="3" fill="#202020"/>
  <rect x="23" y="24" width="18" height="6" fill="#50382d"/><rect x="18" y="30" width="28" height="22" fill="#f5f5ee"/>
  <rect x="18" y="30" width="6" height="22" fill="#78c9ec"/><rect x="30" y="30" width="6" height="22" fill="#78c9ec"/><rect x="42" y="30" width="4" height="22" fill="#78c9ec"/>
  <rect x="15" y="33" width="3" height="16" fill="#dca477"/><rect x="46" y="33" width="3" height="16" fill="#dca477"/>
  <rect x="23" y="52" width="8" height="8" fill="#eff4f7"/><rect x="35" y="52" width="8" height="8" fill="#eff4f7"/>
  <rect x="21" y="59" width="11" height="3" fill="#212a39"/><rect x="34" y="59" width="11" height="3" fill="#212a39"/>
</svg>
